<svg xmlns="http://www.w3.org/2000/svg" width="64" height="64" viewBox="0 0 48 48" style="overflow:visible;enable-background:new 0 0 48 48" xml:space="preserve"><defs><linearGradient x1="77.25" y1="196.88" gradientTransform="translate(1.29 795.08)" x2="148.47" gradientUnits="userSpaceOnUse" y2="196.88" id="H"><stop offset=".01" stop-color="#fff"/><stop offset=".02" stop-color="#fcfbfa"/><stop offset=".22" stop-color="#d7c7ba"/><stop offset=".42" stop-color="#b99c85"/><stop offset=".6" stop-color="#a17b5c"/><stop offset=".76" stop-color="#90633e"/><stop offset=".9" stop-color="#86542c"/><stop offset="1" stop-color="#824f26"/></linearGradient><linearGradient x1="128.87" y1="179.43" gradientTransform="translate(1.29 795.08)" x2="128.87" gradientUnits="userSpaceOnUse" y2="164.62" id="G"><stop offset=".01" stop-color="#824f26"/><stop offset=".19" stop-color="#5f3a1c"/><stop offset=".44" stop-color="#362110"/><stop offset=".67" stop-color="#180f07"/><stop offset=".86" stop-color="#060402"/><stop offset="1"/></linearGradient><linearGradient x1="89.88" y1="178.06" gradientTransform="translate(1.29 795.08)" x2="167.86" gradientUnits="userSpaceOnUse" y2="178.06" id="F"><stop offset=".01" stop-color="#fff"/><stop offset=".02" stop-color="#fcfbfa"/><stop offset=".22" stop-color="#d7c7ba"/><stop offset=".42" stop-color="#b99c85"/><stop offset=".6" stop-color="#a17b5c"/><stop offset=".76" stop-color="#90633e"/><stop offset=".9" stop-color="#86542c"/><stop offset="1" stop-color="#824f26"/></linearGradient><linearGradient x1="72.25" y1="186.29" gradientTransform="translate(1.29 795.08)" x2="186.04" gradientUnits="userSpaceOnUse" y2="186.29" id="E"><stop offset=".01" stop-color="#c77700"/><stop offset=".02" stop-color="#cb7d07"/><stop offset=".13" stop-color="#e19f30"/><stop offset=".23" stop-color="#f2b84e"/><stop offset=".32" stop-color="#fbc760"/><stop offset=".38" stop-color="#fc6"/><stop offset=".48" stop-color="#f5c25c"/><stop offset=".66" stop-color="#dca943"/><stop offset=".88" stop-color="#b27f19"/><stop offset="1" stop-color="#960"/></linearGradient><linearGradient x1="130.97" y1="119.07" gradientTransform="translate(1.29 -1.29)" x2="70.98" gradientUnits="userSpaceOnUse" y2="119.07" id="D"><stop offset=".01" stop-color="#f0f0f0"/><stop offset=".14" stop-color="#eeedec"/><stop offset=".29" stop-color="#e9e6df"/><stop offset=".44" stop-color="#e1d9ca"/><stop offset=".59" stop-color="#d5c7ac"/><stop offset=".75" stop-color="#c6b186"/><stop offset=".9" stop-color="#b39557"/><stop offset=".98" stop-color="#a8843b"/></linearGradient><linearGradient x1="96.53" y1="128.79" gradientTransform="translate(1.29 -1.29)" x2="119.12" gradientUnits="userSpaceOnUse" y2="128.79" id="C"><stop offset=".01" stop-color="#fff"/><stop offset="1" stop-color="#a8843b"/></linearGradient><linearGradient x1="118.2" y1="61.26" gradientTransform="translate(1.29 795.08)" x2="159.42" gradientUnits="userSpaceOnUse" y2="61.26" id="B"><stop offset=".01" stop-color="#d6c5a0"/><stop offset=".19" stop-color="#d4c29c"/><stop offset=".39" stop-color="#ceba8f"/><stop offset=".59" stop-color="#c5ac7a"/><stop offset=".8" stop-color="#b7995c"/><stop offset=".98" stop-color="#a8843b"/></linearGradient><linearGradient x1="117.33" y1="39.82" gradientTransform="translate(1.29 795.08)" x2="145.43" gradientUnits="userSpaceOnUse" y2="39.82" id="A"><stop offset=".01" stop-color="#fff"/><stop offset="1" stop-color="#a8843b"/></linearGradient><linearGradient x1="131.38" y1="42.28" gradientTransform="translate(1.29 795.08)" x2="131.38" gradientUnits="userSpaceOnUse" y2="27.98" id="z"><stop offset=".01" stop-color="#fff"/><stop offset="1" stop-color="#a8843b"/></linearGradient><linearGradient x1="92.71" y1="46.79" gradientTransform="translate(1.29 795.08)" x2="101.93" gradientUnits="userSpaceOnUse" y2="46.79" id="y"><stop offset=".01" stop-color="#fff"/><stop offset="1" stop-color="#a8843b"/></linearGradient><linearGradient x1="70.99" y1="47.09" gradientTransform="translate(1.29 795.08)" x2="94.02" gradientUnits="userSpaceOnUse" y2="47.09" id="x"><stop offset=".01" stop-color="#fff"/><stop offset="1" stop-color="#a8843b"/></linearGradient><linearGradient x1="70.95" y1="48.14" gradientTransform="translate(1.29 -1.29)" x2="94.02" gradientUnits="userSpaceOnUse" y2="48.14" id="w"><stop offset=".01" stop-color="#fff"/><stop offset=".28" stop-color="#fbfbfc"/><stop offset=".58" stop-color="#eeeef2"/><stop offset=".88" stop-color="#d9d9e3"/><stop offset="1" stop-color="#cecedb"/></linearGradient><linearGradient x1="80.73" y1="34.07" gradientTransform="translate(1.29 -1.29)" x2="90.85" gradientUnits="userSpaceOnUse" y2="34.07" id="v"><stop offset=".01" stop-color="#fff"/><stop offset=".16" stop-color="#fcfcfb"/><stop offset=".32" stop-color="#f5f4ee"/><stop offset=".49" stop-color="#e8e5d9"/><stop offset=".66" stop-color="#d6d2bb"/><stop offset=".84" stop-color="#bfb895"/><stop offset=".98" stop-color="#a89f6f"/></linearGradient><linearGradient x1="83.38" y1="43.84" gradientTransform="translate(1.29 795.08)" x2="68.97" gradientUnits="userSpaceOnUse" y2="43.84" id="u"><stop offset=".01" stop-color="#f0f0f0"/><stop offset=".14" stop-color="#eeedec"/><stop offset=".29" stop-color="#e9e6df"/><stop offset=".44" stop-color="#e1d9ca"/><stop offset=".59" stop-color="#d5c7ac"/><stop offset=".75" stop-color="#c6b186"/><stop offset=".9" stop-color="#b39557"/><stop offset=".98" stop-color="#a8843b"/></linearGradient><linearGradient x1="70.28" y1="57.08" gradientTransform="translate(1.29 -1.29)" x2="78.77" gradientUnits="userSpaceOnUse" y2="57.08" id="t"><stop offset=".01" stop-color="#fff"/><stop offset=".56" stop-color="#e2e2e2"/><stop offset="1" stop-color="#cbc7b1"/></linearGradient><linearGradient x1="71.11" y1="49.03" gradientTransform="translate(1.29 795.08)" x2="71.37" gradientUnits="userSpaceOnUse" y2="49.03" id="s"><stop offset=".01" stop-color="#fff"/><stop offset=".56" stop-color="#e2e2e2"/><stop offset="1" stop-color="#cbc7b1"/></linearGradient><linearGradient x1="152.83" y1="26.69" gradientTransform="translate(1.29 795.08)" x2="177.42" gradientUnits="userSpaceOnUse" y2="26.69" id="r"><stop offset=".01" stop-color="#e6e6e6"/><stop offset=".18" stop-color="#e4e3e2"/><stop offset=".36" stop-color="#dddcd5"/><stop offset=".54" stop-color="#d2cfc0"/><stop offset=".73" stop-color="#c3bda2"/><stop offset=".92" stop-color="#afa77c"/><stop offset=".98" stop-color="#a89f6f"/></linearGradient><linearGradient x1="163.29" y1="140.44" gradientTransform="translate(1.29 795.08)" x2="181.68" gradientUnits="userSpaceOnUse" y2="140.44" id="q"><stop offset=".01" stop-color="#fff"/><stop offset=".56" stop-color="#e2e2e2"/><stop offset="1" stop-color="#cbc7b1"/></linearGradient><linearGradient x1="176.79" y1="45.23" gradientTransform="translate(1.29 795.08)" x2="183.42" gradientUnits="userSpaceOnUse" y2="45.23" id="p"><stop offset=".01" stop-color="#fff"/><stop offset=".56" stop-color="#e2e2e2"/><stop offset="1" stop-color="#cbc7b1"/></linearGradient><linearGradient x1="183.42" y1="96.12" gradientTransform="translate(1.29 795.08)" x2="161.51" gradientUnits="userSpaceOnUse" y2="96.12" id="o"><stop offset=".01" stop-color="#fff"/><stop offset=".16" stop-color="#fcfcfb"/><stop offset=".32" stop-color="#f5f4ee"/><stop offset=".49" stop-color="#e8e5d9"/><stop offset=".66" stop-color="#d6d2bb"/><stop offset=".84" stop-color="#bfb895"/><stop offset=".98" stop-color="#a89f6f"/></linearGradient><linearGradient x1="68.97" y1="95.16" gradientTransform="translate(1.29 -1.29)" x2="183.42" gradientUnits="userSpaceOnUse" y2="95.16" id="n"><stop offset=".01" stop-color="#fff"/><stop offset=".42" stop-color="#e2e2e2"/><stop offset="1" stop-color="#cbc7b1"/></linearGradient><linearGradient x1="68.97" y1="95.16" gradientTransform="translate(1.29 795.08)" x2="183.42" gradientUnits="userSpaceOnUse" y2="95.16" id="m"><stop offset=".01" stop-color="#695600"/><stop offset="1" stop-color="#7d7a6d"/></linearGradient><linearGradient x1="71.59" y1="229.5" gradientTransform="translate(1.29 795.08)" x2="187.03" gradientUnits="userSpaceOnUse" y2="229.5" id="l"><stop offset=".01" stop-color="#033"/><stop offset=".02" stop-color="#003a33"/><stop offset=".13" stop-color="#006333"/><stop offset=".23" stop-color="#008133"/><stop offset=".32" stop-color="#009333"/><stop offset=".38" stop-color="#093"/><stop offset=".55" stop-color="#00902a"/><stop offset=".85" stop-color="#007910"/><stop offset="1" stop-color="#006a00"/></linearGradient><linearGradient x1="129.31" y1="239.05" gradientTransform="translate(1.29 795.08)" x2="129.31" gradientUnits="userSpaceOnUse" y2="164.62" id="k"><stop offset=".01" stop-color="#c76200"/><stop offset=".02" stop-color="#c77100"/><stop offset=".04" stop-color="#c77700"/><stop offset=".7" stop-color="#fc6"/><stop offset=".75" stop-color="#f5c25c"/><stop offset=".84" stop-color="#dca943"/><stop offset=".94" stop-color="#b27f19"/><stop offset="1" stop-color="#960"/></linearGradient><linearGradient x1="169.15" y1="244.58" gradientTransform="translate(1.29 795.08)" x2="90.1" gradientUnits="userSpaceOnUse" y2="165.53" id="j"><stop offset=".01" stop-color="#633"/><stop offset=".47" stop-color="#6f3e2b"/><stop offset="1" stop-color="#744426"/></linearGradient></defs><g transform="translate(-.76 1.4) scale(.87896)"><linearGradient y2="46.07" x2="24" y1="2.76" x1="24" gradientUnits="userSpaceOnUse" id="a"><stop style="stop-color:#C2BAAD" offset="0"/><stop style="stop-color:#E7E3DA" offset=".7"/><stop style="stop-color:#D4CCBF" offset="1"/></linearGradient><path d="M41.47 8.28H6.53a2.1 2.1 0 0 0-2.1 2.1v31.74h39.14V10.39a2.1 2.1 0 0 0-2.1-2.1z" style="fill:url(#a)"/><path d="M3.65 5.38V40.8h40.7V5.39H3.65z" style="fill:#ffffff"/><path d="M5.86 5.7a3 3 0 0 0-3 3v34.72h43.41V8.7a3 3 0 0 0-3-3z" style="opacity:0.2"/><path d="M5.49 5.52a3.01 3.01 0 0 0-3.01 3v34.71H45.9V8.53a3 3 0 0 0-3.01-3.01H5.49Z" style="opacity:0.2"/><linearGradient y2="46.35" x2="24" y1="-.02" x1="24" gradientUnits="userSpaceOnUse" id="b"><stop style="stop-color:#494949" offset="0"/><stop style="stop-color:#616161" offset=".7"/><stop style="stop-color:#585868" offset="1"/></linearGradient><path d="M5.3 5.14a3 3 0 0 0-3 3v34.72h43.4V8.15a3 3 0 0 0-3-3z" style="fill:url(#b)"/><linearGradient y2="46.35" x2="24" y1="-.02" x1="24" gradientUnits="userSpaceOnUse" id="c"><stop style="stop-color:#C2BAAD" offset="0"/><stop style="stop-color:#E7E3DA" offset=".7"/><stop style="stop-color:#D0CABE" offset="1"/></linearGradient><path d="M42.7 5.9H5.3c-1.25 0-2.26 1-2.26 2.25V42.1h41.92V8.15a2.26 2.26 0 0 0-2.26-2.26z" style="fill:url(#c)"/><linearGradient y2="45.15" x2="24" y1=".15" x1="24" gradientUnits="userSpaceOnUse" id="d"><stop style="stop-color:#C2BAAD" offset="0"/><stop style="stop-color:#C4BDB0" offset=".29"/><stop style="stop-color:#CCC5B9" offset=".49"/><stop style="stop-color:#D9D3C8" offset=".66"/><stop style="stop-color:#E8E3DA" offset=".79"/><stop style="stop-color:#F8F6F3" offset=".92"/><stop style="stop-color:#E8E3DA" offset=".95"/></linearGradient><path d="M42.15 5.9H5.85c-1.2 0-2.19.97-2.19 2.18v32.96h40.67V8.07a2.2 2.2 0 0 0-2.18-2.19Z" style="fill:url(#d)"/><linearGradient y2="6.86" x2="24" y1="5.81" x1="24" gradientUnits="userSpaceOnUse" id="e"><stop style="stop-color:#FFFFFF" offset="0"/><stop style="stop-color:#DFDFDF" offset="1"/></linearGradient><path d="M42.7 6.07H5.3c-.85 0-1.54.59-1.54 1.32v.92c0-.73.7-1.32 1.54-1.32h37.4c.85 0 1.54.6 1.54 1.32V7.4c0-.73-.69-1.32-1.54-1.32z" style="fill:url(#e)"/><linearGradient y2="2.3" x2="2.74" y1="27.13" x1="28.18" gradientUnits="userSpaceOnUse" id="f"><stop style="stop-color:#FFFFFF" offset="0"/><stop style="stop-color:#666666" offset="1"/></linearGradient><path d="M39.73 34.72c0 .4-.33.73-.73.73H7.72A.73.73 0 0 1 7 34.7V10.14c0-.4.33-.73.73-.73H39c.4 0 .73.33.73.73z" style="fill:url(#f)"/><linearGradient y2="8.01" x2="23.89" y1="37.92" x1="23.89" gradientUnits="userSpaceOnUse" id="g"><stop style="stop-color:#FFFFFF" offset=".01"/><stop style="stop-color:#F8F8F8" offset=".14"/><stop style="stop-color:#E2E2E2" offset=".66"/><stop style="stop-color:#DADADA" offset="1"/></linearGradient><path d="M42.69 37.08c0 .47-.38.84-.84.84H5.93a.84.84 0 0 1-.84-.84V8.85c0-.46.37-.84.84-.84h35.92c.46 0 .84.38.84.84z" style="fill:url(#g)"/><path d="M42.16 36.63c0 .45-.37.81-.82.81H6.44a.81.81 0 0 1-.82-.81V9.19c0-.45.36-.82.81-.82h34.91c.45 0 .82.37.82.82z"/><linearGradient y2="22.91" x2="41.42" y1="22.91" x1="6.35" gradientUnits="userSpaceOnUse" id="h"><stop style="stop-color:#555555" offset="0"/><stop style="stop-color:#505050" offset=".1"/><stop style="stop-color:#3A3A3A" offset=".65"/><stop style="stop-color:#323232" offset="1"/></linearGradient><path d="M6.43 9.1a.08.08 0 0 0-.08.09v27.44c0 .04.04.08.08.08h34.91c.05 0 .08-.04.08-.08V9.19a.08.08 0 0 0-.08-.08H6.44Z" style="fill:url(#h)"/><linearGradient y2="9.11" x2="23.89" y1="25.69" x1="23.89" gradientUnits="userSpaceOnUse" id="i"><stop style="stop-color:#555555" offset=".01"/><stop style="stop-color:#595959" offset=".25"/><stop style="stop-color:#616161" offset="1"/></linearGradient><path d="M39.8 12.82c.54 0 1.08 0 1.62.02V9.2a.08.08 0 0 0-.08-.08H6.44a.08.08 0 0 0-.09.08v16.5c7.28-7.77 19.55-12.87 33.45-12.87Z" style="fill:url(#i)"/><path d="M12.02 32.49a5.02 5.02 0 0 1-2.42-.8l.73-1.78a4 4 0 0 0 2.32.84c1.17 0 1.75-.4 1.75-1.2 0-.41-.15-.79-.44-1.14-.3-.36-.87-.74-1.7-1.16a8.2 8.2 0 0 1-1.7-1.04c-.3-.27-.54-.6-.7-.98-.16-.38-.24-.8-.24-1.28 0-.69.22-1.3.65-1.83a3.16 3.16 0 0 1 1.75-1.06v-1.38h1.75l-.01 1.3c.94.1 1.65.32 2.1.69l-.6 1.72a3.7 3.7 0 0 0-2.2-.77c-.46 0-.82.13-1.07.38-.25.24-.38.55-.38.93 0 .65.71 1.31 2.13 2 .75.37 1.3.7 1.62 1.02a3 3 0 0 1 .76 1.07c.17.41.26.87.26 1.37 0 .71-.23 1.34-.7 1.87-.46.53-1.1.9-1.92 1.1v1.75h-1.74V32.5zm7.58-3.2 4.02-1.83-4.02-1.81v-1.74l6.09 2.93v1.23l-6.09 2.95z" style="fill:#ffffff"/><path d="m23.6 38.41-.53.05a.04.04 0 0 0-.03.04v2.22l.01.02.03.01.53-.08c.02 0 .03-.02.03-.03v-.83l.65.95c.01.01.03.02.05.01l.56-.17.02-.03v-.03l-.72-.98.72-.93v-.03a.03.03 0 0 0-.02-.03l-.57-.13-.04.01-.64.86v-.86l-.01-.03h-.03z" style="opacity:0.2"/><path style="fill:none" d="M0 48V0h48v48"/></g><path style="fill:url(#j)" d="m170.95 955.7-81.9 3.27a4 4 0 0 0-3.84 4v16.62c-14.66 10.14-15.69 14.68-15.69 16.5l.02.42c.17 3.07 2 8.3 3.36 11.8l-1.84 1.09a4 4 0 0 0-1.96 3.36l-.22 9.88a4 4 0 0 0 .7 2.26c1.04 1.52 11.62 14.84 61.81 13.07 50.8-1.8 57.81-9.02 60.65-16.26a4 4 0 0 0 .28-1.46v-9.15a4 4 0 0 0-1.06-2.7l-3.33-3.63 3.69-9.67a3.98 3.98 0 0 0-.88-4.23c-1.07-1.08-9.53-9.63-15.63-13.49V959.7a4 4 0 0 0-4.16-4z" transform="translate(12.39 -144.33) scale(.18213)"/><path style="fill:url(#k)" d="M89.2 962.96v18.73s-15.9 10.67-15.67 14.6c.21 3.92 4.35 13.72 4.35 13.72l-4.79 2.83-.22 9.8s8.93 13.07 58.38 11.33c49.44-1.75 55.1-8.72 57.06-13.73v-9.14l-5-5.45 4.57-11.98s-11.33-11.54-16.77-13.94V959.7l-81.9 3.27z" transform="translate(12.39 -144.33) scale(.18213)"/><path style="fill:url(#l)" d="M131.25 1028.7c-46.35 1.63-57.1-9.75-58.26-11.18l-.11 5.08s8.93 13.07 58.37 11.33c49.44-1.75 55.1-8.72 57.07-13.72v-5.23c-1.97 5-7.63 11.98-57.07 13.72z" transform="translate(12.39 -144.33) scale(.18213)"/><path style="fill:url(#m)" d="m145.3 809.88.39-.49c-1.64 1.39-11.65 5.66-20.38 8.99-3.71-.43-10.11-.42-19.13.05-14.67.76-14.91.95-15.95 1.77l-.05.05c-1.45.37-5.86.56-9.97.41a4 4 0 0 0-4.14 3.75c-.1 1.43-3.25 5.21-4.72 5.91-4.19 1.68-4.98 6.74-5.06 7.31a4.02 4.02 0 0 0 1.43 3.63l.58.47c-.01.22-.05.44-.05.66 0 2.12.64 3.97 1.44 5.36a16.94 16.94 0 0 0-2.04 5.49c-.03.15-.04.3-.04.45 0 .91.51 1.85 1.02 2.61.84.84 1.08 1.07 1.7 1.51 1.44.78 6.93 6.17 11.15 10.73a3.99 3.99 0 0 0 2.94 1.28h3.05a4 4 0 0 0 2.92-1.27c3.46-3.7 8.54-7.95 13.12-7.17 2.98.51 5.16 2.98 6.43 4.87-22.9 23.13-36.54 43.91-40.47 61.79a49 49 0 0 0-1.21 10.54c0 10.28 3.75 17.37 7.4 21.85 2.3 2.81 4.12 4.36 5.59 5.21 2.42 2.06 12.64 7.37 53.11 6.77 35.88-.53 45.37-8.67 47.79-13.72 2.05-.89 3.47-2.13 4.23-3.73a5.8 5.8 0 0 0 .14-4.75c-.19-.4-.44-.78-.75-1.1-.21-.23-17.22-18.44-17.22-34.45a18 18 0 0 1 2.86-10.06l.17-.29c13.3-24.7 17.23-42.68 17.23-55.3 0-10.58-2.76-17.38-5.06-21.22a4.03 4.03 0 0 0 1.3-2.12 4 4 0 0 0-.62-3.06l-2.84-4.13a3.97 3.97 0 0 0-2.88-1.72l-6.81-.72c-8.01-7.9-22.58-8.02-23.23-8.02-1.2 0-2.61.92-3.37 1.86zm-55.92 11.27zm-7.54 144.81zm3.15.36c-.18.06-.37.08-.56.11.2-.03.4-.05.56-.11zm-1.5.15c.14.02.27.04.4.04-.14.01-.27-.03-.4-.04z" transform="translate(12.39 -144.33) scale(.18213)"/><path style="fill:url(#n)" d="M148.66 15.66c-1.53 2.4-22.85 10.46-22.85 10.46-7.62-1.3-33.12.88-33.12.88-.66 1.74-12.63 1.28-12.63 1.28-.22 3.49-5 8.5-7.19 9.38-2.17.87-2.62 4.15-2.62 4.15l2.4 1.94a6.96 6.96 0 0 0 .88 6.31l6.53.66c-.43 1.09-5.65 1.75-5.65 1.75-1.75 0-2.85 5.22-2.85 5.22 1.96 0 12.85 11.78 12.85 11.78h3.06c18.51-19.82 27.44 1.1 27.44 1.1-71.88 71.22-31.16 95.59-31.16 95.59s6.53 6.56 50.53 5.9c44-.65 44.66-12.87 44.66-12.87 5.01-1.31 3.94-3.69 3.94-3.69s-27.89-29.4-14.82-49.44c30.28-56.2 10-75.6 10-75.6l3.06-1.96-2.84-4.12-8.25-.88c-6.53-7.84-21.37-7.84-21.37-7.84z" transform="translate(12.39 .71) scale(.18213)"/><path style="fill:url(#o)" d="M182.87 951.86s-27.88-29.4-14.81-49.44c30.27-56.2 10.02-75.58 10.02-75.58L173.5 829l1.53 3.92c8.06 35.73-8.06 49.23-11.76 75.58-3.7 26.36 15.68 47.05 15.68 47.05 5-1.3 3.92-3.7 3.92-3.7z" transform="translate(12.39 -144.33) scale(.18213)"/><path style="fill:url(#p)" d="m180.05 829.48-1.98 1.27s6.1 5.84 6.6 20.38c.38-11.37-2.54-18.24-4.62-21.65z" transform="translate(12.39 -144.33) scale(.18213)"/><path style="fill:url(#q)" d="M164.65 916.59c-1.18 15.7 12.77 32.98 17.02 37.85 1.82-1.23 1.2-2.58 1.2-2.58s-16.96-17.89-18.22-35.27z" transform="translate(12.39 -144.33) scale(.18213)"/><path style="fill:url(#r)" d="m160 823.78 18.71-2.44-.41-.61-8.28-.87-.1-.12-15.8 3.39 5.88.65z" transform="translate(12.39 -144.33) scale(.18213)"/><path style="fill:#ffffff" d="M148.66 15.66c-1.53 2.4-22.85 10.46-22.85 10.46-7.62-1.3-33.12.88-33.12.88-.66 1.74-12.63 1.28-12.63 1.28-.22 3.49-5 8.5-7.19 9.38-2.17.87-2.62 4.15-2.62 4.15l1.19.94c.36-.5.83-.91 1.44-1.16 2.17-.87 6.97-5.89 7.18-9.37 0 0 11.97.43 12.63-1.31 0 0 25.5-2.18 33.12-.88 0 0 21.32-8.04 22.85-10.44 0 0 14.84 0 21.37 7.85l8.25.84.97 1.44 1.87-1.22-2.84-4.13-8.25-.87c-6.53-7.84-21.37-7.84-21.37-7.84z" transform="translate(12.39 .71) scale(.18213)"/><path style="fill:url(#s)" d="m72.66 844.04-.26-.21.14.56.11-.35z" transform="translate(12.39 -144.33) scale(.18213)"/><path style="fill:url(#t)" d="M73.16 53.4c-1 1.5-1.6 4.29-1.6 4.29.25 0 .62.18 1.1.5.45-.99 1.06-1.78 1.75-1.78 0 0 5.22-.66 5.65-1.75L73.53 54s-.16-.21-.37-.6z" transform="translate(12.39 .71) scale(.18213)"/><path style="fill:url(#u)" d="m73.53 846.44 3.45.35c-.62-.43-1.1-.69-1.4-.69 0 0 1.16-5.6 3.02-5.6 0 0 5.6-.7 6.06-1.85l-6.99-.7s-2.33-3.03-.93-6.76l-.17-.14c-1.34 1.46-2.76 2.6-3.7 2.97-2.18.88-2.61 4.14-2.61 4.14l2.4 1.96a6.96 6.96 0 0 0 .87 6.32z" transform="translate(12.39 -144.33) scale(.18213)"/><path style="fill:url(#v)" d="M88.84 29.34c-2.29.1-4.22 4.63-4.22 4.63l-2.59 1.72s12.83 2.63 9.56-3.9c-.91-1.85-1.85-2.49-2.75-2.45z" transform="translate(12.39 .71) scale(.18213)"/><path style="fill:url(#w)" d="M80.78 43c-3.48.03-6.64.34-8.34.56l.22.19a6.94 6.94 0 0 0 .87 6.31l6.47.66c12.34-.1 15.31-3.25 15.31-3.25-2.07-3.69-8.73-4.51-14.53-4.47Z" transform="translate(12.39 .71) scale(.18213)"/><path style="fill:url(#x)" d="m72.43 839.94.22.18a6.44 6.44 0 0 0-.37 1.64c5.21-.58 17.26-1.35 21.14 3.2 1.4-.62 1.89-1.14 1.89-1.14-3.32-5.9-18.34-4.46-22.88-3.88z" transform="translate(12.39 -144.33) scale(.18213)"/><path style="fill:url(#y)" d="M94 835.98s9.59 4.14 8.06 11.76c0 0 5.66-10.24-8.06-11.76z" transform="translate(12.39 -144.33) scale(.18213)"/><path style="fill:url(#z)" d="m118.61 833.37 7.84-3.05s3.92 13.72 15.9 2.83l4.36 1.31s-6.32-20.04-18.52-6.97l-9.58 5.88z" transform="translate(12.39 -144.33) scale(.18213)"/><path style="fill:url(#A)" d="M142.35 833.15c-11.2 10.18-15.36-1.15-15.85-2.67l-7.9 4.85 7.85-3.05s3.92 13.72 15.9 2.83l4.36 1.3s-.3-.9-.86-2.21l-3.5-1.05z" transform="translate(12.39 -144.33) scale(.18213)"/><path style="fill:#ffffff" d="M138 833.59s3.7-7.62-6.32-6.53c0 0 11.77-4.36 6.32 6.53z" transform="translate(12.39 -144.33) scale(.18213)"/><path style="fill:url(#B)" d="M158.33 838.06a2.62 2.62 0 0 0-1.78 2.98c1.69 8.88.33 15.56-4.04 19.86-9.93 9.75-32.27 5.24-32.5 5.19a2.61 2.61 0 0 0-1.28 5.06c19.19 5.72 32.45 4.56 39.43-3.46 9.17-10.52 3.41-28.06 3.34-28.22a2.61 2.61 0 0 0-3.17-1.41z" transform="translate(12.39 -144.33) scale(.18213)"/><path style="fill:url(#C)" d="m97.81 101.38 22.53 52.28c1.31-29.41-22.53-52.28-22.53-52.28z" transform="translate(12.39 .71) scale(.18213)"/><path style="fill:url(#D)" d="m118.44 67-3.53 3.56c-71.88 71.23-31.16 95.6-31.16 95.6s6.34 6.33 48.5 5.9c-37.7-.39-43.63-6.31-43.63-6.31S46.42 140.46 118.44 67z" transform="translate(12.39 .71) scale(.18213)"/><path style="fill:url(#E)" d="m171.11 959.7-81.9 3.27v18.73s-15.42 10.35-15.67 14.4c11.82 4.2 31.4 6.94 53.57 6.94 27.08 0 50.3-4.09 60.22-9.91-2.32-2.33-11.49-11.31-16.22-13.4V959.7z" transform="translate(12.39 -144.33) scale(.18213)"/><path style="fill:url(#F)" d="M91.17 964.85v15.48c9.92 2.7 22.69 4.2 36.26 4.2 16.23 0 31.61-2.22 41.72-5.93v-16.86l-77.98 3.11z" transform="translate(12.39 -144.33) scale(.18213)"/><path style="fill:url(#G)" d="M89.2 970.46c9.83 2.52 22.7 4.04 36.82 4.04 18.53 0 34.95-2.63 45.09-6.68v-8.13l-81.9 3.27v7.5z" transform="translate(12.39 -144.33) scale(.18213)"/><path style="fill:url(#H)" d="M89.43 984.75s-10.03 6.1-10.9 9.37c0 0 22.44 9.36 71.23 2.61l-60.33-11.98z" transform="translate(12.39 -144.33) scale(.18213)"/></svg>